<svg width="42" height="42" viewBox="0 0 42 42" fill="none" xmlns="http://www.w3.org/2000/svg">
<rect width="42" height="42" rx="21" fill="#D13A1F"/>
<path d="M11.0006 25.956V28.956C10.9994 29.2345 11.0565 29.5102 11.168 29.7653C11.2796 30.0205 11.4433 30.2496 11.6485 30.4379C11.8537 30.6261 12.096 30.7695 12.3598 30.8587C12.6236 30.9479 12.9032 30.9811 13.1806 30.956C16.2577 30.6216 19.2136 29.5701 21.8106 27.886C24.2267 26.3506 26.2752 24.3022 27.8106 21.886C29.5006 19.2772 30.5523 16.307 30.8806 13.216C30.9055 12.9395 30.8727 12.6607 30.7841 12.3976C30.6954 12.1345 30.553 11.8927 30.3658 11.6876C30.1786 11.4825 29.9508 11.3187 29.6968 11.2065C29.4428 11.0943 29.1682 11.0362 28.8906 11.036H25.8906C25.4052 11.0312 24.9348 11.2031 24.5668 11.5195C24.1988 11.836 23.9585 12.2754 23.8906 12.756C23.7639 13.7161 23.5291 14.6587 23.1906 15.566C23.056 15.9239 23.0269 16.3129 23.1066 16.6869C23.1864 17.0608 23.3717 17.4041 23.6406 17.676L24.9106 18.946C23.487 21.4495 21.4141 23.5224 18.9106 24.946L17.6406 23.676C17.3687 23.4071 17.0254 23.2218 16.6514 23.1421C16.2775 23.0623 15.8885 23.0914 15.5306 23.226C14.6233 23.5645 13.6806 23.7994 12.7206 23.926C12.2348 23.9945 11.7912 24.2392 11.474 24.6135C11.1569 24.9878 10.9884 25.4656 11.0006 25.956Z" fill="white"/>
</svg>
