<svg width="54" height="32" viewBox="0 0 54 32" fill="none" xmlns="http://www.w3.org/2000/svg">
<path d="M53.5483 16C53.5483 24.7795 46.4099 32 37.5483 32C28.7689 32 21.5483 24.7795 21.5483 16C21.5483 7.22051 28.6868 0 37.4663 0C46.4099 0 53.5483 7.22051 53.5483 16Z" fill="#F9B50B"/>
<path d="M32.133 16.0821C32.133 14.9333 31.9689 13.7846 31.8048 12.7179H21.9587C22.0407 12.1436 22.2048 11.6513 22.3689 10.9949H31.1484C30.9843 10.4205 30.7382 9.84615 30.492 9.2718H23.0253C23.2715 8.69744 23.5997 8.20513 23.9279 7.54872H29.5894C29.2612 6.97436 28.851 6.4 28.3587 5.82564H25.2407C25.733 5.25128 26.2253 4.75897 26.8818 4.18462C24.092 1.55897 20.3177 0 16.133 0C7.4356 0.246154 0.215088 7.22051 0.215088 16C0.215088 24.7795 7.35355 32 16.2151 32C20.3997 32 24.092 30.359 26.9638 27.8154C27.5382 27.3231 28.0305 26.7487 28.6048 26.0923H25.3228C24.9125 25.6 24.5023 25.0256 24.1741 24.4513H29.7536C30.0818 23.959 30.41 23.3846 30.6561 22.7282H23.1894C22.9433 22.2359 22.6971 21.6615 22.533 21.0051H31.3125C31.8048 19.5282 32.133 17.8872 32.133 16.0821Z" fill="#C8191C"/>
<path d="M21.8766 20.1024L22.1227 18.6255C22.0407 18.6255 21.8766 18.7075 21.7125 18.7075C21.1381 18.7075 21.0561 18.3793 21.1381 18.2152L21.6304 15.2614H22.533L22.7791 13.6204H21.9586L22.1227 12.6357H20.3997C20.3997 12.6357 19.415 18.2152 19.415 18.8716C19.415 19.8563 19.9894 20.3486 20.8099 20.3486C21.3022 20.3486 21.7125 20.1845 21.8766 20.1024Z" fill="white"/>
<path d="M22.4509 17.3942C22.4509 19.7737 24.092 20.348 25.4048 20.348C26.6355 20.348 27.2099 20.1019 27.2099 20.1019L27.5381 18.4608C27.5381 18.4608 26.6355 18.8711 25.733 18.8711C23.8458 18.8711 24.174 17.4762 24.174 17.4762H27.6202C27.6202 17.4762 27.8663 16.4096 27.8663 15.9172C27.8663 14.8506 27.292 13.4557 25.4048 13.4557C23.7637 13.3737 22.4509 15.2608 22.4509 17.3942ZM25.4048 14.9326C26.3073 14.9326 26.1432 15.9993 26.1432 16.0813H24.2561C24.3381 15.9993 24.5022 14.9326 25.4048 14.9326Z" fill="white"/>
<path d="M36.1535 20.1026L36.4817 18.2154C36.4817 18.2154 35.6612 18.6257 35.0048 18.6257C33.8561 18.6257 33.2817 17.7231 33.2817 16.6565C33.2817 14.6052 34.2663 13.5385 35.4971 13.5385C36.3176 13.5385 37.0561 14.0308 37.0561 14.0308L37.3022 12.2257C37.3022 12.2257 36.3176 11.8154 35.333 11.8154C33.3637 11.8154 31.4766 13.5385 31.4766 16.7385C31.4766 18.8718 32.4612 20.2667 34.5125 20.2667C35.2509 20.3488 36.1535 20.1026 36.1535 20.1026Z" fill="white"/>
<path d="M12.6048 13.374C11.4561 13.374 10.5535 13.7022 10.5535 13.7022L10.3073 15.1792C10.3073 15.1792 11.0458 14.8509 12.1945 14.8509C12.7689 14.8509 13.2612 14.933 13.2612 15.4253C13.2612 15.7535 13.1791 15.8356 13.1791 15.8356H12.4407C10.9638 15.8356 9.40479 16.4099 9.40479 18.3792C9.40479 19.9381 10.3894 20.2663 11.0458 20.2663C12.1945 20.2663 12.7689 19.5279 12.8509 19.5279L12.7689 20.1843H14.1638L14.8202 15.5074C14.8202 13.4561 13.1791 13.374 12.6048 13.374ZM12.933 17.1484C12.933 17.3945 12.7689 18.7894 11.7843 18.7894C11.292 18.7894 11.1279 18.3792 11.1279 18.133C11.1279 17.7227 11.374 17.1484 12.6868 17.1484C12.8509 17.1484 12.933 17.1484 12.933 17.1484Z" fill="white"/>
<path d="M16.4614 20.2664C16.8717 20.2664 19.005 20.3484 19.005 18.051C19.005 15.9176 16.9537 16.3279 16.9537 15.5074C16.9537 15.0971 17.282 14.933 17.8563 14.933C18.1025 14.933 19.005 15.0151 19.005 15.0151L19.2512 13.4561C19.2512 13.4561 18.6768 13.292 17.6102 13.292C16.3794 13.292 15.0666 13.7843 15.0666 15.5074C15.0666 17.4766 17.1999 17.3125 17.1999 18.051C17.1999 18.5433 16.6255 18.6253 16.2153 18.6253C15.4768 18.6253 14.6563 18.3792 14.6563 18.3792L14.4102 19.9381C14.5743 20.1022 15.0666 20.2664 16.4614 20.2664Z" fill="white"/>
<path d="M50.2663 12.0615L49.9381 14.359C49.9381 14.359 49.2817 13.5384 48.2971 13.5384C46.7381 13.5384 45.4253 15.4256 45.4253 17.641C45.4253 19.0359 46.0817 20.4308 47.5586 20.4308C48.5432 20.4308 49.1997 19.7743 49.1997 19.7743L49.1176 20.3487H50.8407L52.0714 12.2256L50.2663 12.0615ZM49.4458 16.4923C49.4458 17.3949 49.0356 18.6256 48.0509 18.6256C47.4766 18.6256 47.1484 18.1333 47.1484 17.2308C47.1484 15.8359 47.7227 15.0154 48.5432 15.0154C49.1176 15.0974 49.4458 15.5077 49.4458 16.4923Z" fill="white"/>
<path d="M3.33316 20.1846L4.31778 14.1128L4.48188 20.1846H5.6306L7.84598 14.1128L6.94342 20.1846H8.74855L10.1434 12.0615H7.35368L5.6306 17.0667L5.54855 12.0615H3.08701L1.69214 20.1846H3.33316Z" fill="white"/>
<path d="M29.5893 20.1842C30.0816 17.3945 30.1637 15.0971 31.3945 15.5073C31.5586 14.4406 31.8047 13.9483 31.9688 13.5381H31.6406C30.9021 13.5381 30.2457 14.5227 30.2457 14.5227L30.4098 13.6201H28.7688L27.7021 20.1842H29.5893Z" fill="white"/>
<path d="M40.0918 13.374C38.9431 13.374 38.0406 13.7022 38.0406 13.7022L37.7944 15.1792C37.7944 15.1792 38.5329 14.8509 39.6816 14.8509C40.2559 14.8509 40.7483 14.933 40.7483 15.4253C40.7483 15.7535 40.6662 15.8356 40.6662 15.8356H39.9277C38.4508 15.8356 36.8918 16.4099 36.8918 18.3792C36.8918 19.9381 37.8765 20.2663 38.5329 20.2663C39.6816 20.2663 40.2559 19.5279 40.338 19.5279L40.2559 20.1843H41.8149L42.4713 15.5074C42.4713 13.4561 40.6662 13.374 40.0918 13.374ZM40.5021 17.1484C40.5021 17.3945 40.338 18.7894 39.3534 18.7894C38.8611 18.7894 38.697 18.3792 38.697 18.133C38.697 17.7227 38.9431 17.1484 40.2559 17.1484C40.42 17.1484 40.42 17.1484 40.5021 17.1484Z" fill="white"/>
<path d="M43.7844 20.1842C44.2767 17.3945 44.3588 15.0971 45.5895 15.5073C45.7536 14.4406 45.9998 13.9483 46.1639 13.5381H45.8357C45.0972 13.5381 44.4408 14.5227 44.4408 14.5227L44.6049 13.6201H42.9639L41.8972 20.1842H43.7844Z" fill="white"/>
</svg>
