<svg width="111" height="32" viewBox="0 0 111 32" fill="none" xmlns="http://www.w3.org/2000/svg">
<path d="M99.6451 0H78.3806C79.6193 7.01935 86.4322 13.6258 93.8645 13.6258H110.794C111 13.0065 111 11.9742 111 11.3548C111 5.16129 105.839 0 99.6451 0Z" fill="url(#paint0_linear_96_5238)"/>
<path d="M80.2385 14.8652V32.0007H90.5611V22.9168H99.645C104.6 22.9168 108.935 19.4072 110.38 14.8652H80.2385Z" fill="#4FAD50"/>
<path d="M43.9031 0V31.7936H52.987C52.987 31.7936 55.2579 31.7936 56.4966 29.5226C62.6902 17.3419 64.5482 13.6258 64.5482 13.6258H65.787V31.7936H76.1095V0H67.0257C67.0257 0 64.7547 0.206464 63.516 2.27098C58.3547 12.8 55.4644 18.1677 55.4644 18.1677H54.2257V0H43.9031Z" fill="#4FAD50"/>
<path d="M0.54834 31.9996V0.206055H10.8709C10.8709 0.206055 13.7613 0.206048 15.4129 4.74798C19.5419 16.7222 19.9548 18.3738 19.9548 18.3738C19.9548 18.3738 20.7806 15.4835 24.4967 4.74798C26.1484 0.206048 29.0387 0.206055 29.0387 0.206055H39.3613V31.9996H29.0387V14.8641H27.8L22.0194 31.9996H17.4774L11.6968 14.8641H10.4581V31.9996H0.54834Z" fill="#4FAD50"/>
<defs>
<linearGradient id="paint0_linear_96_5238" x1="78.3439" y1="6.91056" x2="110.927" y2="6.91056" gradientUnits="userSpaceOnUse">
<stop stop-color="#27B1E6"/>
<stop offset="1" stop-color="#148ACA"/>
</linearGradient>
</defs>
</svg>
