<svg width="106" height="32" viewBox="0 0 106 32" fill="none" xmlns="http://www.w3.org/2000/svg">
<path d="M98.2057 0.457031H91.6533C89.6723 0.457031 88.1485 1.06656 87.2342 3.04751L74.739 31.5427H83.5771C83.5771 31.5427 85.1009 27.7332 85.4057 26.8189C86.32 26.8189 95.0057 26.8189 96.2247 26.8189C96.5295 27.8856 97.2914 31.3904 97.2914 31.3904H105.215L98.2057 0.457031ZM87.8438 20.4189C88.6057 18.5904 91.1962 11.7332 91.1962 11.7332C91.1962 11.8856 91.9581 9.90465 92.2628 8.83798L92.8723 11.5808C92.8723 11.5808 94.5485 19.0475 94.8533 20.5713H87.8438V20.4189Z" fill="#3362AB"/>
<path d="M75.3484 21.3333C75.3484 27.7333 69.558 32 60.5675 32C56.758 32 53.1008 31.2381 51.1199 30.3238L52.3389 23.3143L53.4056 23.7714C56.1484 24.9905 57.977 25.4476 61.3294 25.4476C63.7675 25.4476 66.358 24.5333 66.358 22.4C66.358 21.0286 65.2913 20.1143 61.9389 18.5905C58.7389 17.0667 54.4722 14.6286 54.4722 10.2095C54.4722 4.11429 60.4151 0 68.7961 0C71.9961 0 74.7389 0.609524 76.4151 1.37143L75.1961 8.07619L74.5865 7.46667C73.0627 6.85714 71.0818 6.24762 68.1865 6.24762C64.9865 6.4 63.4627 7.77143 63.4627 8.99048C63.4627 10.3619 65.2913 11.4286 68.1865 12.8C73.0627 15.0857 75.3484 17.6762 75.3484 21.3333Z" fill="#3362AB"/>
<path d="M0.986572 0.760891L1.13895 0.151367H14.2437C16.0723 0.151367 17.4437 0.760891 17.9009 2.74184L20.7961 16.4561C17.9009 9.14184 11.1961 3.19899 0.986572 0.760891Z" fill="#F9B50B"/>
<path d="M39.2343 0.459022L25.9772 31.3924H16.9867L9.36768 5.48759C14.8534 8.99235 19.4248 14.4781 21.101 18.2876L22.0153 21.4876L30.2439 0.306641H39.2343V0.459022Z" fill="#3362AB"/>
<path d="M42.7389 0.306641H51.1198L45.7865 31.3924H37.4055L42.7389 0.306641Z" fill="#3362AB"/>
</svg>
