<svg xmlns="http://www.w3.org/2000/svg" width="60" height="60" fill="none"><path fill="#D13A1F" d="M17.146 54.375h25.917c1.639 0 2.979-1.371 2.979-3.047V8.672c0-1.676-1.34-3.047-2.979-3.047H17.146c-1.639 0-2.979 1.371-2.979 3.047v42.656c0 1.676 1.34 3.047 2.979 3.047Zm27.407-8.76H15.657V13.166h28.97l-.075 32.45ZM15.657 8.672c0-.838.67-1.524 1.489-1.524h25.917c.82 0 1.49.686 1.49 1.524v2.97H15.657v-2.97Zm0 38.467h28.97v4.19c0 .837-.67 1.523-1.49 1.523H17.147c-.82 0-1.49-.686-1.49-1.524v-4.19Zm14.448.914c1.042 0 1.861.838 1.861 1.904 0 1.066-.819 1.904-1.861 1.904-1.043 0-1.862-.838-1.862-1.904 0-1.066.819-1.904 1.862-1.904Zm2.234-39H27.87c-.447 0-.745.304-.745.761s.298.762.745.762h4.469c.447 0 .745-.305.745-.762a.755.755 0 0 0-.745-.761ZM17.444 24.744l2.68 1.143v7.465c0 .38.299.685.671.761 3.351.457 6.48 2.133 8.788 4.723a.797.797 0 0 0 1.117 0 14.052 14.052 0 0 1 8.714-4.723c.372-.076.67-.38.67-.761v-7.465l1.638-.686v4.723c0 .457.298.762.745.762s.745-.305.745-.762v-5.865c0-.305-.149-.61-.447-.686l-12.363-5.104c-.149-.076-.372-.076-.595 0l-12.363 5.104c-.596.229-.596 1.143 0 1.371Zm21.15 7.922c-3.202.533-6.18 2.133-8.49 4.494-2.308-2.361-5.287-3.96-8.49-4.494v-6.17l8.193 3.428c.149.076.372.076.595 0l8.193-3.428v6.17Zm-8.49-12.873 10.352 4.266L30.104 28.4l-10.351-4.265 10.352-4.342Zm12.363 11.654c-.447 0-.745.305-.745.762v.38c0 .458.298.763.745.763s.745-.305.745-.762v-.381a.755.755 0 0 0-.745-.762Z"/></svg>