<svg xmlns="http://www.w3.org/2000/svg" width="60" height="60" fill="none"><path fill="#D13A1F" d="M43.72 53.048a.456.456 0 0 1-.217-.054l-4.128-2.168-4.128 2.169a.469.469 0 0 1-.68-.494l.789-4.596-3.34-3.255a.47.47 0 0 1 .261-.798l4.614-.672L38.956 39c.157-.32.683-.32.84 0l2.064 4.181 4.614.672a.47.47 0 0 1 .261.798l-3.34 3.255.79 4.596a.47.47 0 0 1-.465.547Zm-4.345-3.22c.075 0 .15.017.217.053l3.506 1.843-.67-3.903a.466.466 0 0 1 .135-.414l2.836-2.764-3.919-.57a.464.464 0 0 1-.352-.256l-1.753-3.552-1.753 3.55a.466.466 0 0 1-.353.257l-3.919.57 2.836 2.764a.47.47 0 0 1 .135.414l-.669 3.903 3.505-1.842a.466.466 0 0 1 .218-.054ZM23.32 45.624a.457.457 0 0 1-.217-.054l-1.521-.799-1.52.799a.468.468 0 0 1-.68-.494l.29-1.693-1.23-1.2a.47.47 0 0 1 .261-.799l1.7-.247.76-1.54a.468.468 0 0 1 .84 0l.76 1.54 1.7.247a.468.468 0 0 1 .26.8l-1.23 1.199.291 1.693a.467.467 0 0 1-.464.548Zm-3.543-3.447.726.708a.47.47 0 0 1 .135.414l-.172 1 .898-.472a.467.467 0 0 1 .436 0l.899.472-.172-1a.467.467 0 0 1 .135-.414l.726-.708-1.004-.145a.466.466 0 0 1-.352-.256l-.449-.91-.45.91a.466.466 0 0 1-.352.256l-1.004.145Zm21.961-4.289a.469.469 0 0 1-.281-.844l3.563-2.672V7.89H33.77v26.484l3.561 2.672a.47.47 0 0 1-.562.75l-3.75-2.812a.469.469 0 0 1-.188-.375V7.42a.469.469 0 0 1 .469-.468h12.187a.469.469 0 0 1 .47.468v27.188a.47.47 0 0 1-.188.375l-3.75 2.812a.465.465 0 0 1-.28.094Zm-15.937-3.75h-8.438a.468.468 0 0 1-.468-.469V10.233a.469.469 0 0 1 .468-.469h8.438a.469.469 0 0 1 .469.469V33.67a.469.469 0 0 1-.47.469Zm-7.969-.938h7.5v-22.5h-7.5v22.5Z"/><path fill="#D13A1F" d="M22.988 34.139h-2.812a.468.468 0 0 1-.469-.469V10.233a.469.469 0 0 1 .469-.469h2.812a.469.469 0 0 1 .469.469V33.67a.469.469 0 0 1-.469.469Zm-2.343-.938h1.875v-22.5h-1.875v22.5Z"/><path fill="#D13A1F" d="M25.332 36.952h-.254a.468.468 0 1 1 0-.938h.254c.517 0 .938-.42.938-.938a.94.94 0 0 0-.938-.937h-7.5a.94.94 0 0 0-.938.938.94.94 0 0 0 .938.937h.215a.469.469 0 0 1 0 .938h-.215a1.877 1.877 0 0 1-1.875-1.875c0-1.035.841-1.875 1.875-1.875h7.5c1.034 0 1.875.84 1.875 1.875 0 1.034-.84 1.875-1.875 1.875ZM42.676 36.763a.469.469 0 0 1-.469-.469V7.888h-5.625v28.406a.469.469 0 1 1-.938 0V7.42a.469.469 0 0 1 .47-.468h6.562a.469.469 0 0 1 .468.468v28.875a.469.469 0 0 1-.468.47Zm-3.282 3.001a.478.478 0 0 1-.293-.102l-2.344-1.875a.47.47 0 0 1 .586-.732l2.051 1.64 2.052-1.64a.47.47 0 0 1 .586.732l-2.344 1.875a.478.478 0 0 1-.294.102Z"/><path fill="#D13A1F" d="M42.89 36.952h-7.03a.468.468 0 1 1 0-.938h7.03a.469.469 0 0 1 0 .938ZM21.563 50.077c-4.136 0-7.5-3.365-7.5-7.5 0-4.136 3.364-7.5 7.5-7.5 4.135 0 7.5 3.364 7.5 7.5 0 4.135-3.365 7.5-7.5 7.5Zm0-14.063A6.57 6.57 0 0 0 15 42.577a6.57 6.57 0 0 0 6.563 6.562 6.57 6.57 0 0 0 6.562-6.563 6.57 6.57 0 0 0-6.563-6.562ZM38.457 32.26h1.875v1.874h-1.875V32.26Zm0-3.75h1.875v1.874h-1.875V28.51Zm0-3.75h1.875v1.874h-1.875V24.76Zm0-3.75h1.875v1.874h-1.875V21.01Zm0-3.75h1.875v1.874h-1.875V17.26Zm0-3.75h1.875v1.874h-1.875V13.51Zm0-3.75h1.875v1.874h-1.875V9.76Z"/><path fill="#D13A1F" d="M21.582 37.888a.469.469 0 1 0 0-.937.469.469 0 0 0 0 .937ZM21.582 48.2a.469.469 0 1 0 0-.937.469.469 0 0 0 0 .938ZM26.738 43.044a.469.469 0 1 0 0-.937.469.469 0 0 0 0 .937ZM16.426 43.044a.469.469 0 1 0 0-.937.469.469 0 0 0 0 .937ZM25.559 39.261a.469.469 0 1 0-.663-.663.469.469 0 0 0 .663.663ZM18.267 46.553a.469.469 0 1 0-.663-.663.469.469 0 0 0 .663.663ZM25.559 46.553a.469.469 0 1 0-.663-.663.469.469 0 0 0 .663.663ZM18.267 39.26a.469.469 0 1 0-.662-.662.469.469 0 0 0 .662.663ZM23.994 37.993a.469.469 0 1 0-.866-.36.469.469 0 0 0 .866.36ZM20.04 47.517a.469.469 0 1 0-.866-.36.469.469 0 0 0 .866.36ZM26.777 44.732a.469.469 0 1 0-.865-.36.469.469 0 0 0 .866.36ZM17.254 40.779a.469.469 0 1 0-.865-.36.469.469 0 0 0 .865.36ZM26.526 41.04a.469.469 0 1 0-.358-.866.469.469 0 0 0 .358.867ZM16.995 44.979a.469.469 0 1 0-.358-.867.469.469 0 0 0 .358.867ZM23.729 47.775a.469.469 0 1 0-.359-.867.469.469 0 0 0 .359.867ZM19.79 38.244a.469.469 0 1 0-.358-.867.469.469 0 0 0 .359.867Z"/></svg>