<svg xmlns="http://www.w3.org/2000/svg" width="60" height="61" fill="none"><path fill="#D13A1F" d="M37.596 43.07a1 1 0 0 0-1-1h-1.351c-.514 0-.934-.394-1.079-.888a4.863 4.863 0 0 0-1.006-1.836c-.245-.28-.37-.654-.28-1.015l7.514-30.134A1 1 0 0 0 39.132 7l-16.195 4.944a1 1 0 0 0-.695 1.119l4.103 25.048c.06.36-.088.716-.345.974a4.899 4.899 0 0 0-1.235 2.096c-.143.495-.563.89-1.078.89h-1.352a1 1 0 0 0-1 1v6.328a1 1 0 0 1-1 1h-.156a1 1 0 0 0-1 1v2.12a1 1 0 0 0 1 1h18.375a1 1 0 0 0 1-1v-2.14a.979.979 0 0 0-.979-.98.979.979 0 0 1-.979-.979v-6.348Zm.226-34.69a1 1 0 0 1 1.262 1.198l-.262 1.048a1 1 0 0 1-.693.719L24.68 15.22a1 1 0 0 1-1.265-.8l-.115-.701a1 1 0 0 1 .695-1.118l13.828-4.222ZM27.216 39.283a.468.468 0 0 0 .195-.46l-3.52-21.484a1 1 0 0 1 .71-1.122l12.152-3.502a1 1 0 0 1 1.247 1.203l-6.247 25.055a.468.468 0 0 0 .163.48c.52.407.923.934 1.182 1.528.24.551-.232 1.089-.834 1.089h-5.603c-.6 0-1.073-.535-.836-1.087a3.975 3.975 0 0 1 1.39-1.7Zm-4.945 4.724a1 1 0 0 1 1-1H35.66a1 1 0 0 1 1 1v5.39a1 1 0 0 1-1 1H23.272a1 1 0 0 1-1-1v-5.39Zm15.345 7.328a1 1 0 0 1 1 1v.244a1 1 0 0 1-1 1h-16.5a1 1 0 0 1-1-1v-.244a1 1 0 0 1 1-1h16.5Zm-5.133-28.397a1 1 0 0 1 .288-.886l.564-.55a1 1 0 0 0-.554-1.705l-.78-.113a1 1 0 0 1-.753-.548l-.349-.707a1 1 0 0 0-1.793 0l-.349.707a1 1 0 0 1-.753.547l-.78.114a1 1 0 0 0-.554 1.705l.564.55a1 1 0 0 1 .288.886l-.134.776a1 1 0 0 0 1.451 1.055l.698-.367a1 1 0 0 1 .93 0l.698.367a1 1 0 0 0 1.451-1.055l-.133-.776Zm-2.128.346a.758.758 0 0 0-.705 0 .758.758 0 0 1-1.1-.8.757.757 0 0 0-.217-.67.757.757 0 0 1 .42-1.292.758.758 0 0 0 .57-.414.758.758 0 0 1 1.36 0c.11.223.323.378.57.414.62.09.87.854.42 1.292a.758.758 0 0 0-.218.67.758.758 0 0 1-1.1.8Z"/></svg>