<svg xmlns="http://www.w3.org/2000/svg" width="60" height="60" fill="none"><path fill="#D13A1F" d="M35.983 37.309a.469.469 0 0 1-.903.254l-.15-.532a.469.469 0 0 1 .903-.254l.15.532Zm.024 1.817a.469.469 0 0 0-.324.579l.15.531a.469.469 0 1 0 .903-.254l-.15-.531a.469.469 0 0 0-.579-.325ZM21.721 20.585a8.435 8.435 0 1 1 8.434 8.434 8.443 8.443 0 0 1-8.434-8.434Zm.938 0a7.497 7.497 0 1 0 7.496-7.497 7.505 7.505 0 0 0-7.496 7.496Zm17.344 10.822c-.373.283-.59.75-.47 1.202l4.565 17.11a1 1 0 0 1-1.34 1.186l-3.147-1.268a1 1 0 0 0-1.16.31l-2.098 2.667a1 1 0 0 1-1.752-.361L31.327 39.98c-.264-.99-1.669-.99-1.933 0l-3.273 12.273a1 1 0 0 1-1.752.36l-2.099-2.666a1 1 0 0 0-1.16-.31l-3.147 1.268a1 1 0 0 1-1.34-1.186l4.454-16.694c.134-.502-.147-1.015-.595-1.28a4.786 4.786 0 0 1-2.188-5.313 1.588 1.588 0 0 0-.705-1.709 4.81 4.81 0 0 1 .005-8.28 1.582 1.582 0 0 0 .705-1.702 4.812 4.812 0 0 1 4.027-5.968 4.81 4.81 0 0 1 1.83.11 1.582 1.582 0 0 0 1.703-.704 4.809 4.809 0 0 1 8.282 0 1.582 1.582 0 0 0 1.702.705A4.81 4.81 0 0 1 41.7 14.74c-.163.636.14 1.368.706 1.702a4.81 4.81 0 0 1-.005 8.285 1.578 1.578 0 0 0-.705 1.697 4.832 4.832 0 0 1-1.252 4.603c-.14.135-.287.262-.441.379Zm.882-4.343c-.108-.766-1.058-.747-1.497-.11a11.286 11.286 0 0 1-4.573 3.838.011.011 0 0 0-.007.01c0 .003.002.007.005.01a3.894 3.894 0 0 0 6.072-3.748Zm-7.058 4.163a.025.025 0 0 0-.032-.027c-2.41.841-5.036.821-7.43-.056a.145.145 0 0 0-.138.024.117.117 0 0 0-.043.116 3.89 3.89 0 0 0 7.643-.057Zm-3.672-.348a10.294 10.294 0 1 0-10.294-10.295A10.307 10.307 0 0 0 30.155 30.88ZM42.32 17.501c-.62-.479-1.283.217-1.134.986.269 1.385.269 2.81 0 4.195-.149.769.514 1.465 1.134.986a3.905 3.905 0 0 0 1.512-3.084 3.898 3.898 0 0 0-1.512-3.082Zm-7.507-7.144a.011.011 0 0 0 .002.02c1.85.85 3.427 2.18 4.572 3.838.44.637 1.39.656 1.498-.11a3.895 3.895 0 0 0-6.072-3.748Zm-8.629-.473a.118.118 0 0 0 .043.117c.04.03.091.04.138.024a11.033 11.033 0 0 1 7.429-.056.025.025 0 0 0 .033-.028 3.89 3.89 0 0 0-7.643-.057Zm-6.476 5.792a.193.193 0 0 0 .189.087.254.254 0 0 0 .194-.134 11.286 11.286 0 0 1 5.004-5.057.168.168 0 0 0 .088-.129.134.134 0 0 0-.06-.13 3.89 3.89 0 0 0-5.415 5.363Zm-.459 8.714a.196.196 0 0 0 .199-.073.258.258 0 0 0 .043-.235 11.048 11.048 0 0 1 0-6.995.258.258 0 0 0-.043-.235.196.196 0 0 0-.198-.073 3.89 3.89 0 0 0 0 7.611Zm.97 5.975a3.9 3.9 0 0 0 4.904.49.134.134 0 0 0 .06-.13.168.168 0 0 0-.088-.128 11.286 11.286 0 0 1-5.004-5.057.253.253 0 0 0-.194-.134.193.193 0 0 0-.189.088 3.9 3.9 0 0 0 .51 4.871ZM18.012 48.15a1 1 0 0 0 1.34 1.186l1.659-.668a1 1 0 0 0 .592-.667l4.063-15.043a.635.635 0 0 0-.042-.43.776.776 0 0 0-.967-.389c-.485.188-.999.29-1.518.303-.52.013-1.02.317-1.155.82l-3.972 14.888Zm11.342-11.654c.163-.608-.278-1.21-.876-1.408a4.801 4.801 0 0 1-.597-.243c-.711-.348-1.73-.09-1.936.674l-3.404 12.605a1 1 0 0 0 .18.88l1.225 1.557a1 1 0 0 0 1.752-.36l3.656-13.705Zm9.377-3.262c-.15-.558-.74-.863-1.315-.81a4.59 4.59 0 0 1-2.61-.535.149.149 0 0 0-.213.088c-.024.08-.048.16-.077.237a.018.018 0 0 0 .022.024c.01-.003.02.003.022.012l.671 2.386a.469.469 0 0 1-.903.254l-.055-.196c-.152-.54-.895-.687-1.34-.344-.283.218-.59.404-.915.555-.516.24-.864.792-.717 1.341L35.024 50.2a1 1 0 0 0 1.752.36l1.129-1.435a1 1 0 0 0 .176-.889l-1.647-5.858a.469.469 0 1 1 .903-.254l1.638 5.827a1 1 0 0 0 .59.657l1.805.727a1 1 0 0 0 1.34-1.186l-3.98-14.916Z"/></svg>