<svg width="32" height="32" viewBox="0 0 32 32" fill="none" xmlns="http://www.w3.org/2000/svg">
<path d="M4.05 15H25.64L20.34 9.71C20.1517 9.5217 20.0459 9.2663 20.0459 9C20.0459 8.7337 20.1517 8.47831 20.34 8.29C20.5283 8.1017 20.7837 7.99591 21.05 7.99591C21.3163 7.99591 21.5717 8.1017 21.76 8.29L28.76 15.29C28.8407 15.3779 28.9051 15.4795 28.95 15.59C28.9556 15.6231 28.9556 15.6569 28.95 15.69C28.9773 15.7709 28.9941 15.8549 29 15.94V16C28.9995 16.1062 28.9792 16.2113 28.94 16.31C28.8985 16.4223 28.8337 16.5245 28.75 16.61L21.75 23.61C21.657 23.7037 21.5464 23.7781 21.4246 23.8289C21.3027 23.8797 21.172 23.9058 21.04 23.9058C20.908 23.9058 20.7773 23.8797 20.6554 23.8289C20.5336 23.7781 20.423 23.7037 20.33 23.61C20.2363 23.517 20.1619 23.4064 20.1111 23.2846C20.0603 23.1627 20.0342 23.032 20.0342 22.9C20.0342 22.768 20.0603 22.6373 20.1111 22.5154C20.1619 22.3936 20.2363 22.283 20.33 22.19L25.64 17H4.05C3.78478 17 3.53043 16.8946 3.34289 16.7071C3.15536 16.5196 3.05 16.2652 3.05 16C3.05 15.7348 3.15536 15.4804 3.34289 15.2929C3.53043 15.1054 3.78478 15 4.05 15Z" fill="#494949"/>
</svg>
