<svg xmlns="http://www.w3.org/2000/svg">
    <symbol id="icon-whatsapp"
        fill="none"
        viewBox="0 0 32 32"
    >
        <rect width="32" height="32" rx="16"/>
        <path
            fill="currentColor"
            d="M22.341 9.65A8.343 8.343 0 0 0 16.43 7.2c-4.624 0-8.37 3.733-8.37 8.342 0 1.458.41 2.916 1.112 4.141L8 24l4.449-1.167a8.558 8.558 0 0 0 3.98.992c4.625 0 8.371-3.733 8.371-8.342-.059-2.158-.878-4.258-2.459-5.833Zm-1.873 8.867c-.175.466-.995.933-1.405.991a3.28 3.28 0 0 1-1.287-.058c-.293-.117-.703-.233-1.171-.467-2.107-.875-3.454-2.975-3.57-3.15-.118-.116-.879-1.108-.879-2.158 0-1.05.527-1.517.702-1.75.176-.233.41-.233.586-.233h.41c.117 0 .292-.059.468.35.176.408.585 1.458.644 1.516a.37.37 0 0 1 0 .35c-.059.117-.117.234-.234.35-.117.117-.234.292-.293.35-.117.117-.234.234-.117.409.117.233.527.875 1.17 1.458.82.7 1.464.933 1.698 1.05.234.117.351.058.468-.058.118-.117.527-.584.644-.817.117-.233.293-.175.469-.117.175.059 1.229.584 1.405.7.234.117.35.175.41.234.058.175.058.583-.118 1.05Z"
        />
    </symbol>
    <symbol id="icon-telegram"
        fill="none"
        viewBox="0 0 32 32"
    >
        <rect width="32" height="32" rx="16"/>
        <path
            fill="currentColor"
            d="m22.4 10.082-2.404 12.552s-.337.87-1.26.453l-5.548-4.405-.026-.013c.75-.697 6.56-6.107 6.814-6.352.393-.38.15-.606-.307-.32l-8.583 5.645-3.312-1.153s-.52-.192-.57-.61c-.052-.418.587-.644.587-.644l13.5-5.484s1.11-.505 1.11.33Z"
        />
    </symbol>
    <symbol  id="icon-vk" fill="none" viewBox="0 0 32 32">
        <rect width="32" height="32" rx="16" fill="#4A639C" />
        <path d="M16.786 21.6004C10.7727 21.6004 7.34286 17.3962 7.19995 10.4004H10.2121C10.311 15.5351 12.5316 17.7101 14.2905 18.1585V10.4004H17.1267V14.8288C18.8637 14.6382 20.6885 12.6202 21.3041 10.4004H24.1404C23.9084 11.5517 23.446 12.6417 22.782 13.6024C22.1181 14.5631 21.2669 15.3737 20.2818 15.9836C21.3814 16.5408 22.3527 17.3296 23.1316 18.2978C23.9104 19.266 24.479 20.3916 24.7999 21.6004H21.6779C21.3898 20.5505 20.8043 19.6106 19.9947 18.8987C19.1851 18.1867 18.1874 17.7342 17.1267 17.598V21.6004H16.786V21.6004Z" fill="white" />
    </symbol>
    <symbol id="icon-youtube" fill="none" viewBox="0 0 32 32"
    >
        <rect width="32" height="32" rx="16" fill="#CF2200" />
        <path fill-rule="evenodd" clip-rule="evenodd" d="M9.00994 21.6455C8.69613 21.5526 8.4098 21.3874 8.17512 21.1639C7.94043 20.9403 7.76427 20.665 7.66151 20.361C7.07429 18.7899 6.9003 12.2295 8.03124 10.9345C8.40764 10.5132 8.93906 10.2538 9.51017 10.2126C12.5441 9.89414 21.9179 9.93661 22.9945 10.3188C23.2973 10.4147 23.5739 10.5762 23.8037 10.7913C24.0335 11.0064 24.2104 11.2695 24.3212 11.5608C24.9628 13.1849 24.9845 19.0871 24.2342 20.6476C24.0352 21.0538 23.7019 21.3828 23.2881 21.5818C22.1572 22.1338 10.5106 22.1231 9.00994 21.6455ZM13.8273 18.567L19.2646 15.807L13.8273 13.0257V18.567Z" fill="white" />
    </symbol>
    <symbol id="icon-phone"
        fill="none"
        viewBox="0 0 42 42"
    >
        <rect width="42" height="42" rx="21" />
        <path
            fill="currentColor"
            d="M11 25.956v3a2 2 0 0 0 2.18 2 19.791 19.791 0 0 0 8.63-3.07 19.502 19.502 0 0 0 6-6 19.791 19.791 0 0 0 3.07-8.67 2.002 2.002 0 0 0-1.99-2.18h-3a2 2 0 0 0-2 1.72c-.126.96-.36 1.903-.7 2.81a2 2 0 0 0 .45 2.11l1.27 1.27a16.001 16.001 0 0 1-6 6l-1.27-1.27a2 2 0 0 0-2.11-.45c-.907.338-1.85.573-2.81.7a2 2 0 0 0-1.72 2.03Z"
        />
    </symbol>
    <symbol id="icon-arrow"
        fill="none"
        viewBox="0 0 32 32"
    >
        <path
            fill="currentColor"
            d="M4.05 15h21.59l-5.3-5.29a1.004 1.004 0 1 1 1.42-1.42l7 7a1 1 0 0 1 .19.3.3.3 0 0 1 0 .1c.027.08.044.165.05.25V16a.85.85 0 0 1-.06.31.85.85 0 0 1-.19.3l-7 7a1.002 1.002 0 0 1-1.639-.325 1 1 0 0 1 .219-1.095L25.64 17H4.05a1 1 0 0 1 0-2Z"
        />
    </symbol>
    <symbol id="icon-price" viewBox="0 0 40 40">
        <rect width="40" height="40" rx="20" fill="#D13A1F" />
        <path
            d="M26.6457 10.5838H23.5569C23.4675 10.188 23.1015 9.89023 22.6637 9.89023H22.0378C21.7615 9.22133 20.9646 8.75 20 8.75C19.0354 8.75 18.2383 9.22133 17.962 9.89023H17.3361C16.8985 9.89023 16.5325 10.1879 16.4431 10.5838H13.3543C12.3812 10.5838 11.5896 11.3755 11.5896 12.3485V29.4853C11.5896 30.4584 12.3812 31.25 13.3543 31.25H26.6457C27.6189 31.25 28.4105 30.4584 28.4105 29.4853V12.3485C28.4105 11.3754 27.6189 10.5838 26.6457 10.5838ZM25.2811 25.3712H23.2013C22.912 25.3712 22.6776 25.6057 22.6776 25.8949V28.1709H14.7189V13.6629H16.588C16.7536 13.89 17.0266 14.0395 17.3361 14.0395H22.6638C22.9734 14.0395 23.2464 13.89 23.412 13.6629H25.2811V25.3712ZM24.6025 26.4187L23.725 27.3623V26.4187H24.6025ZM17.4689 10.9377H18.3814C18.6707 10.9377 18.9051 10.7032 18.9051 10.414C18.9051 10.1229 19.3733 9.79747 20.0001 9.79747C20.6268 9.79747 21.0948 10.1229 21.0948 10.414C21.0948 10.7032 21.3292 10.9377 21.6185 10.9377H22.5311V12.992H17.4689V10.9377ZM27.3629 29.4852C27.3629 29.8807 27.0412 30.2025 26.6457 30.2025H13.3543C12.9588 30.2025 12.6371 29.8807 12.6371 29.4852V12.3485C12.6371 11.9531 12.9588 11.6313 13.3543 11.6313H16.4215V12.6154H14.1952C13.9059 12.6154 13.6715 12.8499 13.6715 13.1391V28.6946C13.6715 28.9838 13.9059 29.2183 14.1952 29.2183H23.046C23.0715 29.2183 23.096 29.2144 23.1205 29.2108C23.1474 29.2151 23.1743 29.2183 23.2012 29.2183C23.3441 29.2183 23.4838 29.1599 23.585 29.0513L26.1885 26.2516C26.2068 26.2318 26.2233 26.211 26.238 26.1892C26.2401 26.1861 26.2416 26.1826 26.2437 26.1794C26.2583 26.157 26.2708 26.1336 26.2817 26.1095C26.2856 26.1008 26.2889 26.0919 26.2924 26.0829C26.3007 26.0613 26.3076 26.0393 26.3129 26.0169C26.3148 26.0089 26.3172 26.0012 26.3188 25.9931C26.3246 25.9624 26.3278 25.9314 26.3281 25.9001C26.3281 25.8983 26.3286 25.8967 26.3286 25.8949V13.1392C26.3286 12.85 26.0942 12.6155 25.8049 12.6155H23.5787V11.6313H26.6458C27.0413 11.6313 27.363 11.9531 27.363 12.3485V29.4853L27.3629 29.4852ZM23.8786 16.679C23.8786 16.9682 23.6442 17.2027 23.3549 17.2027H16.7708C16.4815 17.2027 16.2471 16.9682 16.2471 16.679C16.2471 16.3897 16.4815 16.1552 16.7708 16.1552H23.3549C23.6442 16.1552 23.8786 16.3897 23.8786 16.679ZM23.8786 19.3125C23.8786 19.6017 23.6442 19.8362 23.3549 19.8362H16.7708C16.4815 19.8362 16.2471 19.6017 16.2471 19.3125C16.2471 19.0233 16.4815 18.7887 16.7708 18.7887H23.3549C23.6442 18.7887 23.8786 19.0233 23.8786 19.3125ZM23.8786 21.9461C23.8786 22.2353 23.6442 22.4698 23.3549 22.4698H16.7708C16.4815 22.4698 16.2471 22.2353 16.2471 21.9461C16.2471 21.6568 16.4815 21.4223 16.7708 21.4223H23.3549C23.6442 21.4223 23.8786 21.6568 23.8786 21.9461ZM21.4846 24.5797C21.4846 24.8689 21.2502 25.1034 20.9609 25.1034H16.7708C16.4815 25.1034 16.2471 24.8689 16.2471 24.5797C16.2471 24.2905 16.4815 24.056 16.7708 24.056H20.9609C21.2502 24.056 21.4846 24.2905 21.4846 24.5797Z"
            fill="white"
        />
    </symbol>
    <symbol id="icon-cross"
        viewBox="0 0 20 20"
    >
        <path
            fill="currentColor"
            fill-rule="evenodd"
            clip-rule="evenodd"
            d="M9.99996 3.33333C10.4602 3.33333 10.8333 3.70642 10.8333 4.16666V15.8333C10.8333 16.2936 10.4602 16.6667 9.99996 16.6667C9.53972 16.6667 9.16663 16.2936 9.16663 15.8333V4.16666C9.16663 3.70642 9.53972 3.33333 9.99996 3.33333Z"
        />
        <path
            fill="currentColor"
            fill-rule="evenodd"
            clip-rule="evenodd"
            d="M3.33337 10C3.33337 9.53977 3.70647 9.16667 4.16671 9.16667H15.8334C16.2936 9.16667 16.6667 9.53977 16.6667 10C16.6667 10.4602 16.2936 10.8333 15.8334 10.8333H4.16671C3.70647 10.8333 3.33337 10.4602 3.33337 10Z"
        />
    </symbol>
    <symbol id="icon-nose"
        viewBox="0 0 20 20"
    >
        <path
        fill="currentColor"
            fill-rule="evenodd"
            clip-rule="evenodd"
            d="M6.9107 4.41075C7.23614 4.08531 7.76378 4.08531 8.08921 4.41075L13.0892 9.41075C13.4147 9.73619 13.4147 10.2638 13.0892 10.5893L8.08921 15.5893C7.76378 15.9147 7.23614 15.9147 6.9107 15.5893C6.58527 15.2638 6.58527 14.7362 6.9107 14.4107L11.3214 10L6.9107 5.58926C6.58527 5.26382 6.58527 4.73619 6.9107 4.41075Z"
        />
    </symbol>
    <symbol id="icon-counter-plus" viewBox="0 0 24 25">
        <path
            fill="currentColor"
            fill-rule="evenodd"
            clip-rule="evenodd"
            d="M12 4.5C12.5523 4.5 13 4.94772 13 5.5V19.5C13 20.0523 12.5523 20.5 12 20.5C11.4477 20.5 11 20.0523 11 19.5V5.5C11 4.94772 11.4477 4.5 12 4.5Z"
        />
        <path
            fill="currentColor"
            fill-rule="evenodd"
            clip-rule="evenodd"
            d="M4 12.5C4 11.9477 4.44772 11.5 5 11.5H19C19.5523 11.5 20 11.9477 20 12.5C20 13.0523 19.5523 13.5 19 13.5H5C4.44772 13.5 4 13.0523 4 12.5Z"
        />
    </symbol>
    <symbol id="icon-title-decor" viewBox="0 0 64 60" fill="none" width="64" height="60">
        <circle cx="30" cy="30" r="30" fill="#D13A1F" fill-opacity="0.2"/>
        <circle cx="60" cy="30" r="4" fill="#D13A1F"/>
    </symbol>
    <symbol id="icon-dotted-line" viewBox="0 0 571 4" preserveAspectRatio="xMidYMid slice" fill="none">
        <circle cx="2" cy="2" r="2" fill="currentColor" />
        <circle cx="14" cy="2" r="2" fill="currentColor" />
        <circle cx="26" cy="2" r="2" fill="currentColor" />
        <circle cx="38" cy="2" r="2" fill="currentColor" />
        <circle cx="50" cy="2" r="2" fill="currentColor" />
        <circle cx="62" cy="2" r="2" fill="currentColor" />
        <circle cx="74" cy="2" r="2" fill="currentColor" />
        <circle cx="86" cy="2" r="2" fill="currentColor" />
        <circle cx="98" cy="2" r="2" fill="currentColor" />
        <circle cx="110" cy="2" r="2" fill="currentColor" />
        <circle cx="122" cy="2" r="2" fill="currentColor" />
        <circle cx="134" cy="2" r="2" fill="currentColor" />
        <circle cx="146" cy="2" r="2" fill="currentColor" />
        <circle cx="158" cy="2" r="2" fill="currentColor" />
        <circle cx="170" cy="2" r="2" fill="currentColor" />
        <circle cx="182" cy="2" r="2" fill="currentColor" />
        <circle cx="194" cy="2" r="2" fill="currentColor" />
        <circle cx="206" cy="2" r="2" fill="currentColor" />
        <circle cx="218" cy="2" r="2" fill="currentColor" />
        <circle cx="230" cy="2" r="2" fill="currentColor" />
        <circle cx="242" cy="2" r="2" fill="currentColor" />
        <circle cx="254" cy="2" r="2" fill="currentColor" />
        <circle cx="266" cy="2" r="2" fill="currentColor" />
        <circle cx="278" cy="2" r="2" fill="currentColor" />
        <circle cx="290" cy="2" r="2" fill="currentColor" />
        <circle cx="302" cy="2" r="2" fill="currentColor" />
        <circle cx="314" cy="2" r="2" fill="currentColor" />
        <circle cx="326" cy="2" r="2" fill="currentColor" />
        <circle cx="338" cy="2" r="2" fill="currentColor" />
        <circle cx="350" cy="2" r="2" fill="currentColor" />
        <circle cx="362" cy="2" r="2" fill="currentColor" />
        <circle cx="374" cy="2" r="2" fill="currentColor" />
        <circle cx="386" cy="2" r="2" fill="currentColor" />
        <circle cx="398" cy="2" r="2" fill="currentColor" />
        <circle cx="410" cy="2" r="2" fill="currentColor" />
        <circle cx="422" cy="2" r="2" fill="currentColor" />
        <circle cx="434" cy="2" r="2" fill="currentColor" />
        <circle cx="446" cy="2" r="2" fill="currentColor" />
        <circle cx="458" cy="2" r="2" fill="currentColor" />
        <circle cx="470" cy="2" r="2" fill="currentColor" />
        <circle cx="482" cy="2" r="2" fill="currentColor" />
        <circle cx="494" cy="2" r="2" fill="currentColor" />
        <circle cx="506" cy="2" r="2" fill="currentColor" />
        <circle cx="518" cy="2" r="2" fill="currentColor" />
        <circle cx="530" cy="2" r="2" fill="currentColor" />
        <circle cx="542" cy="2" r="2" fill="currentColor" />
        <circle cx="554" cy="2" r="2" fill="currentColor" />
        <circle cx="566" cy="2" r="2" fill="currentColor" />
    </symbol>
    <symbol id="icon-quote" viewBox="0 0 65 65" fill="none">
        <path d="M56.1275 25.3175C56.1275 30.7125 55.1525 33.8975 51.9675 39.065C48.685 44.33 42.25 49.4975 37.57 51.9025L36.075 49.01C40.105 46.15 42.705 43.9075 45.565 38.415C46.3775 36.855 46.8325 35.49 47.0925 34.255C46.475 34.385 45.7925 34.45 45.11 34.45C39.195 34.45 34.4175 29.64 34.4175 23.725C34.4175 17.81 39.195 13 45.11 13C50.0175 13 54.1775 16.315 55.4125 20.865C55.8675 22.165 56.1275 23.6275 56.1275 25.3175Z" fill="#141414" />
        <path d="M28.21 25.3175C28.21 30.7125 27.235 33.8975 24.05 39.065C20.7675 44.33 14.3325 49.4975 9.6525 51.9025L8.1575 49.01C12.1875 46.15 14.7875 43.9075 17.6475 38.415C18.46 36.855 18.915 35.49 19.175 34.255C18.5575 34.385 17.875 34.45 17.1925 34.45C11.2775 34.45 6.5 29.64 6.5 23.725C6.5 17.81 11.2775 13 17.1925 13C22.1 13 26.26 16.315 27.495 20.865C27.95 22.165 28.21 23.6275 28.21 25.3175Z" fill="#141414" />
    </symbol>
    <symbol id="icon-visa" viewBox="0 0 106 32" fill="none">
        <path d="M98.2057 0.457031H91.6533C89.6723 0.457031 88.1485 1.06656 87.2342 3.04751L74.739 31.5427H83.5771C83.5771 31.5427 85.1009 27.7332 85.4057 26.8189C86.32 26.8189 95.0057 26.8189 96.2247 26.8189C96.5295 27.8856 97.2914 31.3904 97.2914 31.3904H105.215L98.2057 0.457031ZM87.8438 20.4189C88.6057 18.5904 91.1962 11.7332 91.1962 11.7332C91.1962 11.8856 91.9581 9.90465 92.2628 8.83798L92.8723 11.5808C92.8723 11.5808 94.5485 19.0475 94.8533 20.5713H87.8438V20.4189Z" fill="#3362AB" />
        <path d="M75.3484 21.3333C75.3484 27.7333 69.558 32 60.5675 32C56.758 32 53.1008 31.2381 51.1199 30.3238L52.3389 23.3143L53.4056 23.7714C56.1484 24.9905 57.977 25.4476 61.3294 25.4476C63.7675 25.4476 66.358 24.5333 66.358 22.4C66.358 21.0286 65.2913 20.1143 61.9389 18.5905C58.7389 17.0667 54.4722 14.6286 54.4722 10.2095C54.4722 4.11429 60.4151 0 68.7961 0C71.9961 0 74.7389 0.609524 76.4151 1.37143L75.1961 8.07619L74.5865 7.46667C73.0627 6.85714 71.0818 6.24762 68.1865 6.24762C64.9865 6.4 63.4627 7.77143 63.4627 8.99048C63.4627 10.3619 65.2913 11.4286 68.1865 12.8C73.0627 15.0857 75.3484 17.6762 75.3484 21.3333Z" fill="#3362AB" />
        <path d="M0.986572 0.760891L1.13895 0.151367H14.2437C16.0723 0.151367 17.4437 0.760891 17.9009 2.74184L20.7961 16.4561C17.9009 9.14184 11.1961 3.19899 0.986572 0.760891Z" fill="#F9B50B" />
        <path d="M39.2343 0.459022L25.9772 31.3924H16.9867L9.36768 5.48759C14.8534 8.99235 19.4248 14.4781 21.101 18.2876L22.0153 21.4876L30.2439 0.306641H39.2343V0.459022Z" fill="#3362AB" />
        <path d="M42.7389 0.306641H51.1198L45.7865 31.3924H37.4055L42.7389 0.306641Z" fill="#3362AB" />
    </symbol>
    <symbol id="icon-mastercard" viewBox="0 0 54 32" fill="none">
        <path d="M53.5483 16C53.5483 24.7795 46.4099 32 37.5483 32C28.7689 32 21.5483 24.7795 21.5483 16C21.5483 7.22051 28.6868 0 37.4663 0C46.4099 0 53.5483 7.22051 53.5483 16Z" fill="#F9B50B" />
        <path d="M32.133 16.0821C32.133 14.9333 31.9689 13.7846 31.8048 12.7179H21.9587C22.0407 12.1436 22.2048 11.6513 22.3689 10.9949H31.1484C30.9843 10.4205 30.7382 9.84615 30.492 9.2718H23.0253C23.2715 8.69744 23.5997 8.20513 23.9279 7.54872H29.5894C29.2612 6.97436 28.851 6.4 28.3587 5.82564H25.2407C25.733 5.25128 26.2253 4.75897 26.8818 4.18462C24.092 1.55897 20.3177 0 16.133 0C7.4356 0.246154 0.215088 7.22051 0.215088 16C0.215088 24.7795 7.35355 32 16.2151 32C20.3997 32 24.092 30.359 26.9638 27.8154C27.5382 27.3231 28.0305 26.7487 28.6048 26.0923H25.3228C24.9125 25.6 24.5023 25.0256 24.1741 24.4513H29.7536C30.0818 23.959 30.41 23.3846 30.6561 22.7282H23.1894C22.9433 22.2359 22.6971 21.6615 22.533 21.0051H31.3125C31.8048 19.5282 32.133 17.8872 32.133 16.0821Z" fill="#C8191C" />
        <path d="M21.8766 20.1024L22.1227 18.6255C22.0407 18.6255 21.8766 18.7075 21.7125 18.7075C21.1381 18.7075 21.0561 18.3793 21.1381 18.2152L21.6304 15.2614H22.533L22.7791 13.6204H21.9586L22.1227 12.6357H20.3997C20.3997 12.6357 19.415 18.2152 19.415 18.8716C19.415 19.8563 19.9894 20.3486 20.8099 20.3486C21.3022 20.3486 21.7125 20.1845 21.8766 20.1024Z" fill="white" />
        <path d="M22.4509 17.3942C22.4509 19.7737 24.092 20.348 25.4048 20.348C26.6355 20.348 27.2099 20.1019 27.2099 20.1019L27.5381 18.4608C27.5381 18.4608 26.6355 18.8711 25.733 18.8711C23.8458 18.8711 24.174 17.4762 24.174 17.4762H27.6202C27.6202 17.4762 27.8663 16.4096 27.8663 15.9172C27.8663 14.8506 27.292 13.4557 25.4048 13.4557C23.7637 13.3737 22.4509 15.2608 22.4509 17.3942ZM25.4048 14.9326C26.3073 14.9326 26.1432 15.9993 26.1432 16.0813H24.2561C24.3381 15.9993 24.5022 14.9326 25.4048 14.9326Z" fill="white" />
        <path d="M36.1535 20.1026L36.4817 18.2154C36.4817 18.2154 35.6612 18.6257 35.0048 18.6257C33.8561 18.6257 33.2817 17.7231 33.2817 16.6565C33.2817 14.6052 34.2663 13.5385 35.4971 13.5385C36.3176 13.5385 37.0561 14.0308 37.0561 14.0308L37.3022 12.2257C37.3022 12.2257 36.3176 11.8154 35.333 11.8154C33.3637 11.8154 31.4766 13.5385 31.4766 16.7385C31.4766 18.8718 32.4612 20.2667 34.5125 20.2667C35.2509 20.3488 36.1535 20.1026 36.1535 20.1026Z" fill="white" />
        <path d="M12.6048 13.374C11.4561 13.374 10.5535 13.7022 10.5535 13.7022L10.3073 15.1792C10.3073 15.1792 11.0458 14.8509 12.1945 14.8509C12.7689 14.8509 13.2612 14.933 13.2612 15.4253C13.2612 15.7535 13.1791 15.8356 13.1791 15.8356H12.4407C10.9638 15.8356 9.40479 16.4099 9.40479 18.3792C9.40479 19.9381 10.3894 20.2663 11.0458 20.2663C12.1945 20.2663 12.7689 19.5279 12.8509 19.5279L12.7689 20.1843H14.1638L14.8202 15.5074C14.8202 13.4561 13.1791 13.374 12.6048 13.374ZM12.933 17.1484C12.933 17.3945 12.7689 18.7894 11.7843 18.7894C11.292 18.7894 11.1279 18.3792 11.1279 18.133C11.1279 17.7227 11.374 17.1484 12.6868 17.1484C12.8509 17.1484 12.933 17.1484 12.933 17.1484Z" fill="white" />
        <path d="M16.4614 20.2664C16.8717 20.2664 19.005 20.3484 19.005 18.051C19.005 15.9176 16.9537 16.3279 16.9537 15.5074C16.9537 15.0971 17.282 14.933 17.8563 14.933C18.1025 14.933 19.005 15.0151 19.005 15.0151L19.2512 13.4561C19.2512 13.4561 18.6768 13.292 17.6102 13.292C16.3794 13.292 15.0666 13.7843 15.0666 15.5074C15.0666 17.4766 17.1999 17.3125 17.1999 18.051C17.1999 18.5433 16.6255 18.6253 16.2153 18.6253C15.4768 18.6253 14.6563 18.3792 14.6563 18.3792L14.4102 19.9381C14.5743 20.1022 15.0666 20.2664 16.4614 20.2664Z" fill="white" />
        <path d="M50.2663 12.0615L49.9381 14.359C49.9381 14.359 49.2817 13.5384 48.2971 13.5384C46.7381 13.5384 45.4253 15.4256 45.4253 17.641C45.4253 19.0359 46.0817 20.4308 47.5586 20.4308C48.5432 20.4308 49.1997 19.7743 49.1997 19.7743L49.1176 20.3487H50.8407L52.0714 12.2256L50.2663 12.0615ZM49.4458 16.4923C49.4458 17.3949 49.0356 18.6256 48.0509 18.6256C47.4766 18.6256 47.1484 18.1333 47.1484 17.2308C47.1484 15.8359 47.7227 15.0154 48.5432 15.0154C49.1176 15.0974 49.4458 15.5077 49.4458 16.4923Z" fill="white" />
        <path d="M3.33316 20.1846L4.31778 14.1128L4.48188 20.1846H5.6306L7.84598 14.1128L6.94342 20.1846H8.74855L10.1434 12.0615H7.35368L5.6306 17.0667L5.54855 12.0615H3.08701L1.69214 20.1846H3.33316Z" fill="white" />
        <path d="M29.5893 20.1842C30.0816 17.3945 30.1637 15.0971 31.3945 15.5073C31.5586 14.4406 31.8047 13.9483 31.9688 13.5381H31.6406C30.9021 13.5381 30.2457 14.5227 30.2457 14.5227L30.4098 13.6201H28.7688L27.7021 20.1842H29.5893Z" fill="white" />
        <path d="M40.0918 13.374C38.9431 13.374 38.0406 13.7022 38.0406 13.7022L37.7944 15.1792C37.7944 15.1792 38.5329 14.8509 39.6816 14.8509C40.2559 14.8509 40.7483 14.933 40.7483 15.4253C40.7483 15.7535 40.6662 15.8356 40.6662 15.8356H39.9277C38.4508 15.8356 36.8918 16.4099 36.8918 18.3792C36.8918 19.9381 37.8765 20.2663 38.5329 20.2663C39.6816 20.2663 40.2559 19.5279 40.338 19.5279L40.2559 20.1843H41.8149L42.4713 15.5074C42.4713 13.4561 40.6662 13.374 40.0918 13.374ZM40.5021 17.1484C40.5021 17.3945 40.338 18.7894 39.3534 18.7894C38.8611 18.7894 38.697 18.3792 38.697 18.133C38.697 17.7227 38.9431 17.1484 40.2559 17.1484C40.42 17.1484 40.42 17.1484 40.5021 17.1484Z" fill="white" />
        <path d="M43.7844 20.1842C44.2767 17.3945 44.3588 15.0971 45.5895 15.5073C45.7536 14.4406 45.9998 13.9483 46.1639 13.5381H45.8357C45.0972 13.5381 44.4408 14.5227 44.4408 14.5227L44.6049 13.6201H42.9639L41.8972 20.1842H43.7844Z" fill="white" />
    </symbol>
    <symbol id="icon-mir" viewBox="0 0 111 32" fill="none">
        <path d="M99.6451 0H78.3806C79.6193 7.01935 86.4322 13.6258 93.8645 13.6258H110.794C111 13.0065 111 11.9742 111 11.3548C111 5.16129 105.839 0 99.6451 0Z" fill="url(#paint0_linear_96_5238)" />
        <path d="M80.2385 14.8652V32.0007H90.5611V22.9168H99.645C104.6 22.9168 108.935 19.4072 110.38 14.8652H80.2385Z" fill="#4FAD50" />
        <path d="M43.9031 0V31.7936H52.987C52.987 31.7936 55.2579 31.7936 56.4966 29.5226C62.6902 17.3419 64.5482 13.6258 64.5482 13.6258H65.787V31.7936H76.1095V0H67.0257C67.0257 0 64.7547 0.206464 63.516 2.27098C58.3547 12.8 55.4644 18.1677 55.4644 18.1677H54.2257V0H43.9031Z" fill="#4FAD50" />
        <path d="M0.54834 31.9996V0.206055H10.8709C10.8709 0.206055 13.7613 0.206048 15.4129 4.74798C19.5419 16.7222 19.9548 18.3738 19.9548 18.3738C19.9548 18.3738 20.7806 15.4835 24.4967 4.74798C26.1484 0.206048 29.0387 0.206055 29.0387 0.206055H39.3613V31.9996H29.0387V14.8641H27.8L22.0194 31.9996H17.4774L11.6968 14.8641H10.4581V31.9996H0.54834Z" fill="#4FAD50" />
        <defs>
            <linearGradient id="paint0_linear_96_5238" x1="78.3439" y1="6.91056" x2="110.927" y2="6.91056" gradientUnits="userSpaceOnUse">
            <stop stop-color="#27B1E6" />
            <stop offset="1" stop-color="#148ACA" />
            </linearGradient>
        </defs>
    </symbol>
</svg>