<svg xmlns="http://www.w3.org/2000/svg">
            <symbol
                fill="none"
                viewBox="0 0 32 32"
                id="icon-whatsapp"
            >
                <rect width="32" height="32" rx="16"></rect>
                <path
                    fill="currentColor"
                    d="M22.341 9.65A8.343 8.343 0 0 0 16.43 7.2c-4.624 0-8.37 3.733-8.37 8.342 0 1.458.41 2.916 1.112 4.141L8 24l4.449-1.167a8.558 8.558 0 0 0 3.98.992c4.625 0 8.371-3.733 8.371-8.342-.059-2.158-.878-4.258-2.459-5.833Zm-1.873 8.867c-.175.466-.995.933-1.405.991a3.28 3.28 0 0 1-1.287-.058c-.293-.117-.703-.233-1.171-.467-2.107-.875-3.454-2.975-3.57-3.15-.118-.116-.879-1.108-.879-2.158 0-1.05.527-1.517.702-1.75.176-.233.41-.233.586-.233h.41c.117 0 .292-.059.468.35.176.408.585 1.458.644 1.516a.37.37 0 0 1 0 .35c-.059.117-.117.234-.234.35-.117.117-.234.292-.293.35-.117.117-.234.234-.117.409.117.233.527.875 1.17 1.458.82.7 1.464.933 1.698 1.05.234.117.351.058.468-.058.118-.117.527-.584.644-.817.117-.233.293-.175.469-.117.175.059 1.229.584 1.405.7.234.117.35.175.41.234.058.175.058.583-.118 1.05Z"
                ></path>
            </symbol>
            <symbol
                fill="none"
                viewBox="0 0 32 32"
                id="icon-telegram"
            >
                <rect width="32" height="32" rx="16"></rect>
                <path
                    fill="currentColor"
                    d="m22.4 10.082-2.404 12.552s-.337.87-1.26.453l-5.548-4.405-.026-.013c.75-.697 6.56-6.107 6.814-6.352.393-.38.15-.606-.307-.32l-8.583 5.645-3.312-1.153s-.52-.192-.57-.61c-.052-.418.587-.644.587-.644l13.5-5.484s1.11-.505 1.11.33Z"
                ></path>
            </symbol>
            <symbol
                fill="none"
                viewBox="0 0 42 42"
                id="icon-phone"
            >
                <rect width="42" height="42" rx="21"></rect>
                <path
                    fill="currentColor"
                    d="M11 25.956v3a2 2 0 0 0 2.18 2 19.791 19.791 0 0 0 8.63-3.07 19.502 19.502 0 0 0 6-6 19.791 19.791 0 0 0 3.07-8.67 2.002 2.002 0 0 0-1.99-2.18h-3a2 2 0 0 0-2 1.72c-.126.96-.36 1.903-.7 2.81a2 2 0 0 0 .45 2.11l1.27 1.27a16.001 16.001 0 0 1-6 6l-1.27-1.27a2 2 0 0 0-2.11-.45c-.907.338-1.85.573-2.81.7a2 2 0 0 0-1.72 2.03Z"
                ></path>
            </symbol>
            <symbol
                fill="none"
                viewBox="0 0 32 32"
                id="icon-arrow"
            >
                <path
                    fill="currentColor"
                    d="M4.05 15h21.59l-5.3-5.29a1.004 1.004 0 1 1 1.42-1.42l7 7a1 1 0 0 1 .19.3.3.3 0 0 1 0 .1c.027.08.044.165.05.25V16a.85.85 0 0 1-.06.31.85.85 0 0 1-.19.3l-7 7a1.002 1.002 0 0 1-1.639-.325 1 1 0 0 1 .219-1.095L25.64 17H4.05a1 1 0 0 1 0-2Z"
                ></path>
            </symbol>
            <symbol id="icon-price" viewBox="0 0 40 40">
                <rect width="40" height="40" rx="20" fill="#D13A1F" />
                <path
                    d="M26.6457 10.5838H23.5569C23.4675 10.188 23.1015 9.89023 22.6637 9.89023H22.0378C21.7615 9.22133 20.9646 8.75 20 8.75C19.0354 8.75 18.2383 9.22133 17.962 9.89023H17.3361C16.8985 9.89023 16.5325 10.1879 16.4431 10.5838H13.3543C12.3812 10.5838 11.5896 11.3755 11.5896 12.3485V29.4853C11.5896 30.4584 12.3812 31.25 13.3543 31.25H26.6457C27.6189 31.25 28.4105 30.4584 28.4105 29.4853V12.3485C28.4105 11.3754 27.6189 10.5838 26.6457 10.5838ZM25.2811 25.3712H23.2013C22.912 25.3712 22.6776 25.6057 22.6776 25.8949V28.1709H14.7189V13.6629H16.588C16.7536 13.89 17.0266 14.0395 17.3361 14.0395H22.6638C22.9734 14.0395 23.2464 13.89 23.412 13.6629H25.2811V25.3712ZM24.6025 26.4187L23.725 27.3623V26.4187H24.6025ZM17.4689 10.9377H18.3814C18.6707 10.9377 18.9051 10.7032 18.9051 10.414C18.9051 10.1229 19.3733 9.79747 20.0001 9.79747C20.6268 9.79747 21.0948 10.1229 21.0948 10.414C21.0948 10.7032 21.3292 10.9377 21.6185 10.9377H22.5311V12.992H17.4689V10.9377ZM27.3629 29.4852C27.3629 29.8807 27.0412 30.2025 26.6457 30.2025H13.3543C12.9588 30.2025 12.6371 29.8807 12.6371 29.4852V12.3485C12.6371 11.9531 12.9588 11.6313 13.3543 11.6313H16.4215V12.6154H14.1952C13.9059 12.6154 13.6715 12.8499 13.6715 13.1391V28.6946C13.6715 28.9838 13.9059 29.2183 14.1952 29.2183H23.046C23.0715 29.2183 23.096 29.2144 23.1205 29.2108C23.1474 29.2151 23.1743 29.2183 23.2012 29.2183C23.3441 29.2183 23.4838 29.1599 23.585 29.0513L26.1885 26.2516C26.2068 26.2318 26.2233 26.211 26.238 26.1892C26.2401 26.1861 26.2416 26.1826 26.2437 26.1794C26.2583 26.157 26.2708 26.1336 26.2817 26.1095C26.2856 26.1008 26.2889 26.0919 26.2924 26.0829C26.3007 26.0613 26.3076 26.0393 26.3129 26.0169C26.3148 26.0089 26.3172 26.0012 26.3188 25.9931C26.3246 25.9624 26.3278 25.9314 26.3281 25.9001C26.3281 25.8983 26.3286 25.8967 26.3286 25.8949V13.1392C26.3286 12.85 26.0942 12.6155 25.8049 12.6155H23.5787V11.6313H26.6458C27.0413 11.6313 27.363 11.9531 27.363 12.3485V29.4853L27.3629 29.4852ZM23.8786 16.679C23.8786 16.9682 23.6442 17.2027 23.3549 17.2027H16.7708C16.4815 17.2027 16.2471 16.9682 16.2471 16.679C16.2471 16.3897 16.4815 16.1552 16.7708 16.1552H23.3549C23.6442 16.1552 23.8786 16.3897 23.8786 16.679ZM23.8786 19.3125C23.8786 19.6017 23.6442 19.8362 23.3549 19.8362H16.7708C16.4815 19.8362 16.2471 19.6017 16.2471 19.3125C16.2471 19.0233 16.4815 18.7887 16.7708 18.7887H23.3549C23.6442 18.7887 23.8786 19.0233 23.8786 19.3125ZM23.8786 21.9461C23.8786 22.2353 23.6442 22.4698 23.3549 22.4698H16.7708C16.4815 22.4698 16.2471 22.2353 16.2471 21.9461C16.2471 21.6568 16.4815 21.4223 16.7708 21.4223H23.3549C23.6442 21.4223 23.8786 21.6568 23.8786 21.9461ZM21.4846 24.5797C21.4846 24.8689 21.2502 25.1034 20.9609 25.1034H16.7708C16.4815 25.1034 16.2471 24.8689 16.2471 24.5797C16.2471 24.2905 16.4815 24.056 16.7708 24.056H20.9609C21.2502 24.056 21.4846 24.2905 21.4846 24.5797Z"
                    fill="white"
                />
            </symbol>
            <symbol
                fill="none"
                viewBox="0 0 20 20"
                id="icon-cross"
            >
                <path
                    fill="currentColor"
                    fill-rule="evenodd"
                    clip-rule="evenodd"
                    d="M9.99996 3.33333C10.4602 3.33333 10.8333 3.70642 10.8333 4.16666V15.8333C10.8333 16.2936 10.4602 16.6667 9.99996 16.6667C9.53972 16.6667 9.16663 16.2936 9.16663 15.8333V4.16666C9.16663 3.70642 9.53972 3.33333 9.99996 3.33333Z"
                />
                <path
                    fill="currentColor"
                    fill-rule="evenodd"
                    clip-rule="evenodd"
                    d="M3.33337 10C3.33337 9.53977 3.70647 9.16667 4.16671 9.16667H15.8334C16.2936 9.16667 16.6667 9.53977 16.6667 10C16.6667 10.4602 16.2936 10.8333 15.8334 10.8333H4.16671C3.70647 10.8333 3.33337 10.4602 3.33337 10Z"
                />
            </symbol>
            <symbol
                id="icon-nose"
                viewBox="0 0 20 20"
            >
                <path
                    fill-rule="evenodd"
                    clip-rule="evenodd"
                    d="M6.9107 4.41075C7.23614 4.08531 7.76378 4.08531 8.08921 4.41075L13.0892 9.41075C13.4147 9.73619 13.4147 10.2638 13.0892 10.5893L8.08921 15.5893C7.76378 15.9147 7.23614 15.9147 6.9107 15.5893C6.58527 15.2638 6.58527 14.7362 6.9107 14.4107L11.3214 10L6.9107 5.58926C6.58527 5.26382 6.58527 4.73619 6.9107 4.41075Z"
                    fill="#D13A1F"
                />
            </symbol>
        </svg>